<?xml version="1.0" encoding="UTF-8"?>
<svg id="Capa_1" data-name="Capa 1" xmlns="http://www.w3.org/2000/svg" viewBox="0 0 360.86 382.95">
  <defs>
    <style>
      .cls-1 {
        fill: none; 
        stroke: #5356a2; 
        stroke-width: 15px; 
        stroke-linecap: round; 
        stroke-linejoin: round;
        
        stroke-dasharray: 2000;
        stroke-dashoffset: 2000;
        
        animation: draw 3s forwards; 
      }

      @keyframes draw {
        to {
          stroke-dashoffset: 0;
        }
      }
      
      @keyframes fill {
        from {
          fill: none;
        }
        to {
          fill: #5356a2;
        }
      }
      
      .fill-animation {
        animation: fill 1s forwards 3s;
      }
    </style>
  </defs>
  
  <path class="cls-1 fill-animation" d="m360.86,63.73V17.99c0-9.93-8.05-17.99-17.99-17.99H80.16C35.89,0,0,35.89,0,80.16v222.63c0,44.27,35.89,80.16,80.16,80.16h0c28.38,0,55.87-9.9,77.73-27.99l127.06-105.14v67.41l75.91.57V115h-206.2v82.14h62.88l-117.05,87.54c-7.33,5.48-17.78.25-17.78-8.91V101.63c0-10.15,8.2-18.4,18.35-18.47l241.95-1.48c9.87-.06,17.85-8.08,17.85-17.96Z"/>
</svg>